<?xml version="1.0" encoding="utf-8"?>
<!-- Generator: Adobe Illustrator 24.0.1, SVG Export Plug-In . SVG Version: 6.00 Build 0)  -->
<svg version="1.1" id="Layer_1" xmlns="http://www.w3.org/2000/svg" xmlns:xlink="http://www.w3.org/1999/xlink" x="0px" y="0px"
	 viewBox="0 0 2591.3 2578" style="enable-background:new 0 0 2591.3 2578;" xml:space="preserve">
<style type="text/css">
	.st0{fill:#89C22E;}
	.st1{fill:#274C61;}
	.st2{fill:#FFFFFF;}
</style>
<path class="st0" d="M2446.9,2537.6h-2306c-53.1,0-96.8-43.6-96.8-96.8V135.4c0-53.1,43.6-96.8,96.8-96.8h2306
	c53.1,0,96.8,43.6,96.8,96.8v2306C2543.1,2494.6,2500,2537.6,2446.9,2537.6L2446.9,2537.6z"/>
<g>
	<path class="st1" d="M546.7,768.4c0-69.7-0.3-137.9,0.1-206c0.4-74.1,23.8-140.5,70-198.3c65.4-81.7,151-129.8,253.6-148.3
		c97-17.5,189.2-1.6,276.3,42.4c76.2,38.4,137,94.1,175.4,171.6c20.4,41.1,30.7,84.7,30.7,130.7c-0.1,64.1-0.1,128.2-0.1,192.3
		c0,4.8,0,9.6,0,14.7c16,1.2,31.5,1,46.3,3.8c87.5,16.5,136.7,68.3,150.8,155.5c0.3,2,0.1,4.1,0.1,6.1c0,79.9,0,159.9,0,239.8
		c0,2-0.2,4-0.2,4.3c-261,124.5-398.4,329.1-411.1,619.3c-2.9,0-7.2,0-11.5,0c-210.2,0-420.4,1.6-630.6-0.8
		c-85.9-1-150.5-48.9-164.4-142c-1.3-8.7-2.1-17.7-2.1-26.5c-0.1-227.7-0.6-455.3,0.2-683c0.3-87.4,49.3-151.3,134.7-170
		c22.6-4.9,46.5-3.8,69.8-5.4C538.3,768.7,541.8,768.6,546.7,768.4z M1200.1,768.3c-1.9-63.5-1.3-125.6-6.3-187.3
		c-5.4-66.9-34.8-124.3-84.7-169.8c-75.1-68.4-181.3-85.3-267.3-39.5c-94.2,50.2-137.6,133.8-143.5,237.7
		c-2.8,48.9-0.5,98.2-0.5,147.3c0,3.8,0,7.7,0,11.6C865.6,768.3,1031.4,768.3,1200.1,768.3z M1028.7,1479.5c0-6,0-10.8,0-15.6
		c0-68.9,0.1-137.9-0.1-206.8c0-7.5,1.7-12.7,7.8-17.6c30.1-23.7,46.4-55,51.5-93c12.2-92.1-76.5-172.6-166.5-149.8
		c-55.6,14.1-91.6,50.1-103.3,106c-11.7,55.8,6.4,103,51.7,138.6c6,4.7,8.4,9.4,8.3,17.1c-0.3,68.9-0.2,137.9-0.2,206.8
		c0,4.7,0,9.3,0,14.2C928.9,1479.5,977.9,1479.5,1028.7,1479.5z"/>
	<path class="st2" d="M1803.7,1221.9c316.9,2.8,569,254.4,568.8,570c-0.2,317.7-254.6,569.8-570.4,569.1
		c-317.2-0.7-568.7-254.8-568.1-570.1C1234.5,1473.9,1488.2,1224,1803.7,1221.9z M1644.2,2150.1c52.2,0,102.1-0.3,152,0.2
		c9.3,0.1,13.2-3.1,16.6-11.5c74.4-184,149.2-367.9,223.8-551.7c10-24.7,19.9-49.4,30.1-74.8c-2.8-0.5-4.3-1.1-5.8-1.1
		c-47.1-0.1-94.1,0.2-141.2-0.3c-8.8-0.1-9.8,5.3-11.8,10.9c-23.1,65.7-46.1,131.5-69.2,197.2c-10.4,29.5-20.9,59-32.3,91.2
		c-2.8-7.1-4.5-11.6-6.2-16c-33.6-90.8-67.3-181.5-100.6-272.4c-3-8.2-6.9-10.9-15.5-10.8c-45,0.5-90.1,0.2-135.1,0.2
		c-3.5,0-6.9,0.4-11.5,0.7c1.7,4.8,2.9,8.6,4.4,12.3c10.4,26.8,20.9,53.6,31.4,80.4c46.2,118,92.2,236.1,138.7,354.1
		c4.4,11.2,5.5,20.7-0.1,32.1c-10.1,20.7-18.3,42.4-27.3,63.6C1671.3,2085.6,1658.2,2116.9,1644.2,2150.1z"/>
</g>
</svg>
