<?xml version="1.0" encoding="UTF-8" standalone="no"?>
<!DOCTYPE svg PUBLIC "-//W3C//DTD SVG 1.1//EN" "http://www.w3.org/Graphics/SVG/1.1/DTD/svg11.dtd">
<svg width="100%" height="100%" viewBox="0 0 2850 2850" version="1.1" xmlns="http://www.w3.org/2000/svg" xmlns:xlink="http://www.w3.org/1999/xlink" xml:space="preserve" xmlns:serif="http://www.serif.com/" style="fill-rule:evenodd;clip-rule:evenodd;stroke-linejoin:round;stroke-miterlimit:2;">
    <g transform="matrix(1,0,0,1,129.35,136)">
        <path d="M2446.9,2537.6L140.9,2537.6C87.8,2537.6 44.1,2494 44.1,2440.8L44.1,135.4C44.1,82.3 87.7,38.6 140.9,38.6L2446.9,38.6C2500,38.6 2543.7,82.2 2543.7,135.4L2543.7,2441.4C2543.1,2494.6 2500,2537.6 2446.9,2537.6Z" style="fill:rgb(137,194,46);fill-rule:nonzero;"/>
    </g>
    <g transform="matrix(1,0,0,1,129.35,136)">
        <path d="M546.7,768.4C546.7,698.7 546.4,630.5 546.8,562.4C547.2,488.3 570.6,421.9 616.8,364.1C682.2,282.4 767.8,234.3 870.4,215.8C967.4,198.3 1059.6,214.2 1146.7,258.2C1222.9,296.6 1283.7,352.3 1322.1,429.8C1342.5,470.9 1352.8,514.5 1352.8,560.5C1352.7,624.6 1352.7,688.7 1352.7,752.8L1352.7,767.5C1368.7,768.7 1384.2,768.5 1399,771.3C1486.5,787.8 1535.7,839.6 1549.8,926.8C1550.1,928.8 1549.9,930.9 1549.9,932.9L1549.9,1172.7C1549.9,1174.7 1549.7,1176.7 1549.7,1177C1288.7,1301.5 1151.3,1506.1 1138.6,1796.3L1127.1,1796.3C916.9,1796.3 706.7,1797.9 496.5,1795.5C410.6,1794.5 346,1746.6 332.1,1653.5C330.8,1644.8 330,1635.8 330,1627C329.9,1399.3 329.4,1171.7 330.2,944C330.5,856.6 379.5,792.7 464.9,774C487.5,769.1 511.4,770.2 534.7,768.6C538.3,768.7 541.8,768.6 546.7,768.4ZM1200.1,768.3C1198.2,704.8 1198.8,642.7 1193.8,581C1188.4,514.1 1159,456.7 1109.1,411.2C1034,342.8 927.8,325.9 841.8,371.7C747.6,421.9 704.2,505.5 698.3,609.4C695.5,658.3 697.8,707.6 697.8,756.7L697.8,768.3L1200.1,768.3ZM1028.7,1479.5L1028.7,1463.9C1028.7,1395 1028.8,1326 1028.6,1257.1C1028.6,1249.6 1030.3,1244.4 1036.4,1239.5C1066.5,1215.8 1082.8,1184.5 1087.9,1146.5C1100.1,1054.4 1011.4,973.9 921.4,996.7C865.8,1010.8 829.8,1046.8 818.1,1102.7C806.4,1158.5 824.5,1205.7 869.8,1241.3C875.8,1246 878.2,1250.7 878.1,1258.4C877.8,1327.3 877.9,1396.3 877.9,1465.2L877.9,1479.4C928.9,1479.5 977.9,1479.5 1028.7,1479.5Z" style="fill:rgb(39,76,97);fill-rule:nonzero;"/>
        <path d="M1803.7,1221.9C2120.6,1224.7 2372.7,1476.3 2372.5,1791.9C2372.3,2109.6 2117.9,2361.7 1802.1,2361C1484.9,2360.3 1233.4,2106.2 1234,1790.9C1234.5,1473.9 1488.2,1224 1803.7,1221.9ZM1644.2,2150.1C1696.4,2150.1 1746.3,2149.8 1796.2,2150.3C1805.5,2150.4 1809.4,2147.2 1812.8,2138.8C1887.2,1954.8 1962,1770.9 2036.6,1587.1C2046.6,1562.4 2056.5,1537.7 2066.7,1512.3C2063.9,1511.8 2062.4,1511.2 2060.9,1511.2C2013.8,1511.1 1966.8,1511.4 1919.7,1510.9C1910.9,1510.8 1909.9,1516.2 1907.9,1521.8C1884.8,1587.5 1861.8,1653.3 1838.7,1719C1828.3,1748.5 1817.8,1778 1806.4,1810.2C1803.6,1803.1 1801.9,1798.6 1800.2,1794.2C1766.6,1703.4 1732.9,1612.7 1699.6,1521.8C1696.6,1513.6 1692.7,1510.9 1684.1,1511C1639.1,1511.5 1594,1511.2 1549,1511.2C1545.5,1511.2 1542.1,1511.6 1537.5,1511.9C1539.2,1516.7 1540.4,1520.5 1541.9,1524.2C1552.3,1551 1562.8,1577.8 1573.3,1604.6C1619.5,1722.6 1665.5,1840.7 1712,1958.7C1716.4,1969.9 1717.5,1979.4 1711.9,1990.8C1701.8,2011.5 1693.6,2033.2 1684.6,2054.4C1671.3,2085.6 1658.2,2116.9 1644.2,2150.1Z" style="fill:white;fill-rule:nonzero;"/>
    </g>
</svg>
