/* XPM */
static char * C:\Users\Dain\Documents\yubico graphics\yubioath_xpm[] = {
"32 32 346 2",
"  	c None",
". 	c #DCDDDC",
"+ 	c #E9E9E9",
"@ 	c #EEEEEE",
"# 	c #E9E8E9",
"$ 	c #C3C3C3",
"% 	c #B0B0B0",
"& 	c #DFDFDF",
"* 	c #CFD0CF",
"= 	c #BCBCBC",
"- 	c #F6F6F6",
"; 	c #FEFEFE",
"> 	c #FDFDFD",
", 	c #F7F7F8",
"' 	c #E4E5E5",
") 	c #D7D7D7",
"! 	c #B7B7B7",
"~ 	c #C9C9C9",
"{ 	c #D9D9D9",
"] 	c #D3D4D4",
"^ 	c #CECECE",
"/ 	c #C4C3C4",
"( 	c #9D9C9D",
"_ 	c #E3E2E2",
": 	c #EDEDED",
"< 	c #EFEFEF",
"[ 	c #F5F5F5",
"} 	c #FBFBFB",
"| 	c #FFFFFF",
"1 	c #E8E8E8",
"2 	c #9B9B9B",
"3 	c #8C8D8C",
"4 	c #E6E6E6",
"5 	c #DBDBDB",
"6 	c #D1D1D2",
"7 	c #CCCCCC",
"8 	c #C6C6C6",
"9 	c #C1C2C2",
"0 	c #B4B4B4",
"a 	c #DDDDDD",
"b 	c #E7E7E7",
"c 	c #F9FAFA",
"d 	c #8F8F8F",
"e 	c #676766",
"f 	c #5E5E5F",
"g 	c #686868",
"h 	c #666767",
"i 	c #666666",
"j 	c #797979",
"k 	c #A3A3A4",
"l 	c #C8C8C8",
"m 	c #C5C4C4",
"n 	c #BFBEBE",
"o 	c #B8B8B8",
"p 	c #B6B6B5",
"q 	c #828282",
"r 	c #E1E1E1",
"s 	c #C2C2C2",
"t 	c #A0A1A0",
"u 	c #E7E6E7",
"v 	c #CBCACB",
"w 	c #616161",
"x 	c #6C6C6C",
"y 	c #AAAAAA",
"z 	c #C0C0C0",
"A 	c #B9B9B9",
"B 	c #AFAFAF",
"C 	c #9F9F9F",
"D 	c #7E7E7E",
"E 	c #666667",
"F 	c #949494",
"G 	c #BBBBBB",
"H 	c #BEBEBE",
"I 	c #818182",
"J 	c #DEDEDE",
"K 	c #CACACA",
"L 	c #989899",
"M 	c #878787",
"N 	c #626262",
"O 	c #C6C7C6",
"P 	c #E0E0E0",
"Q 	c #DCDCDC",
"R 	c #D3D3D3",
"S 	c #CBCBCB",
"T 	c #BABABA",
"U 	c #B2B1B1",
"V 	c #A9AAA9",
"W 	c #A2A2A2",
"X 	c #9A9A9A",
"Y 	c #7A7A7A",
"Z 	c #737373",
"` 	c #C5C6C6",
" .	c #909090",
"..	c #A7A7A7",
"+.	c #DADADA",
"@.	c #555555",
"#.	c #8F8E8F",
"$.	c #EAEAEA",
"%.	c #EEEEEF",
"&.	c #D5D5D5",
"*.	c #CCCBCC",
"=.	c #9E9E9F",
"-.	c #979797",
";.	c #919191",
">.	c #828283",
",.	c #6A6A6A",
"'.	c #898989",
").	c #959595",
"!.	c #A1A1A1",
"~.	c #C5C5C5",
"{.	c #828182",
"].	c #8E8E8E",
"^.	c #F9F9F9",
"/.	c #F7F7F6",
"(.	c #CDCCCC",
"_.	c #ACACAC",
":.	c #9C9C9C",
"<.	c #838382",
"[.	c #7D7D7D",
"}.	c #767676",
"|.	c #9C9B9C",
"1.	c #999999",
"2.	c #D1D1D1",
"3.	c #BFC0BF",
"4.	c #ABABAB",
"5.	c #656464",
"6.	c #FAFAFA",
"7.	c #F2F2F2",
"8.	c #B5B5B5",
"9.	c #7F7F80",
"0.	c #727272",
"a.	c #868686",
"b.	c #818080",
"c.	c #959596",
"d.	c #949393",
"e.	c #434343",
"f.	c #BDBEBE",
"g.	c #5A595A",
"h.	c #F3F2F3",
"i.	c #ECECEC",
"j.	c #E3E3E3",
"k.	c #9D9D9D",
"l.	c #B2B2B3",
"m.	c #B6B7B7",
"n.	c #AFAEAE",
"o.	c #535253",
"p.	c #848584",
"q.	c #8D8D8D",
"r.	c #808080",
"s.	c #9C9B9B",
"t.	c #8D8C8C",
"u.	c #6B6B6B",
"v.	c #ADADAD",
"w.	c #B1B1B1",
"x.	c #6E6E6E",
"y.	c #EBEAEA",
"z.	c #F1F2F1",
"A.	c #D1D0D1",
"B.	c #DADAD9",
"C.	c #E5E5E5",
"D.	c #F5F5F4",
"E.	c #959494",
"F.	c #C0BFBF",
"G.	c #AEAEAE",
"H.	c #A2A2A1",
"I.	c #8C8C8C",
"J.	c #5F605F",
"K.	c #989898",
"L.	c #868786",
"M.	c #878786",
"N.	c #7F7F7F",
"O.	c #BFC0C0",
"P.	c #A8A8A8",
"Q.	c #6F6E6F",
"R.	c #A9A9A9",
"S.	c #DBDADA",
"T.	c #E1E2E2",
"U.	c #E8E7E7",
"V.	c #DBDCDB",
"W.	c #B2B2B2",
"X.	c #A1A0A1",
"Y.	c #A6A6A6",
"Z.	c #5C5C5B",
"`.	c #8A8989",
" +	c #818181",
".+	c #373838",
"++	c #A3A4A4",
"@+	c #A8A8A9",
"#+	c #5C5D5C",
"$+	c #C2C2C1",
"%+	c #D2D2D3",
"&+	c #D5D4D5",
"*+	c #D8D8D8",
"=+	c #CECECD",
"-+	c #E2E2E2",
";+	c #868787",
">+	c #5C5C5C",
",+	c #A4A5A5",
"'+	c #858585",
")+	c #888787",
"!+	c #494849",
"~+	c #5F5E5F",
"{+	c #C4C4C4",
"]+	c #CACAC9",
"^+	c #CDCDCD",
"/+	c #D0CFD0",
"(+	c #D4D4D4",
"_+	c #808081",
":+	c #646364",
"<+	c #A9AAAA",
"[+	c #AFAFB0",
"}+	c #B1B0B1",
"|+	c #A9A8A9",
"1+	c #929292",
"2+	c #565656",
"3+	c #C7C7C7",
"4+	c #646464",
"5+	c #C1C1C1",
"6+	c #C2C2C3",
"7+	c #BFBFBF",
"8+	c #9E9E9E",
"9+	c #A2A1A2",
"0+	c #878887",
"a+	c #606060",
"b+	c #B9B9B8",
"c+	c #B3B3B3",
"d+	c #E4E4E4",
"e+	c #4B4C4C",
"f+	c #B6B6B6",
"g+	c #B7B8B8",
"h+	c #B7B7B6",
"i+	c #B5B4B5",
"j+	c #939292",
"k+	c #888888",
"l+	c #B8B9B8",
"m+	c #939493",
"n+	c #C1C1C2",
"o+	c #4C4B4C",
"p+	c #898889",
"q+	c #ACADAC",
"r+	c #AAAAAB",
"s+	c #A3A3A3",
"t+	c #636363",
"u+	c #CFCFCF",
"v+	c #D0D0D0",
"w+	c #969695",
"x+	c #4C4C4C",
"y+	c #848484",
"z+	c #838383",
"A+	c #A09F9F",
"B+	c #9B9A9B",
"C+	c #7F7E7F",
"D+	c #F0F0F0",
"E+	c #F3F3F3",
"F+	c #D8D8D9",
"G+	c #D0D1D0",
"H+	c #B4B5B5",
"I+	c #A3A4A3",
"J+	c #A5A6A5",
"K+	c #323232",
"L+	c #9A9A9B",
"M+	c #848384",
"N+	c #7C7C7C",
"O+	c #7A7A7B",
"P+	c #9D9E9E",
"Q+	c #969696",
"R+	c #EEEFEE",
"S+	c #70706F",
"T+	c #DFDFE0",
"U+	c #F6F7F6",
"V+	c #A0A0A0",
"W+	c #111111",
"X+	c #8A8A8A",
"Y+	c #8C8D8D",
"Z+	c #696969",
"`+	c #919291",
" @	c #8D8D8C",
".@	c #868687",
"+@	c #898888",
"@@	c #6F6E6E",
"#@	c #F1F1F1",
"$@	c #F7F7F7",
"%@	c #EAEAEB",
"&@	c #CBCBCC",
"*@	c #8F9090",
"=@	c #848585",
"-@	c #757575",
";@	c #888889",
">@	c #939393",
",@	c #FEFEFD",
"'@	c #F8F8F8",
")@	c #DBDBDA",
"!@	c #3E3E3E",
"~@	c #9D9D9C",
"{@	c #747475",
"]@	c #7B7B7C",
"^@	c #878888",
"/@	c #908F8F",
"(@	c #E7E8E7",
"_@	c #F0F0F1",
":@	c #F8F8F9",
"<@	c #9F9E9E",
"[@	c #A5A5A5",
"}@	c #8E8D8E",
"|@	c #949594",
"1@	c #707070",
"2@	c #6F6F6E",
"3@	c #656565",
"4@	c #F4F3F4",
"5@	c #C4C4C5",
"6@	c #363636",
"7@	c #A4A3A4",
"8@	c #AFB0AF",
"9@	c #9C9D9D",
"0@	c #9A9A99",
"a@	c #A0A1A1",
"b@	c #E3E3E2",
"c@	c #CCCCCD",
"d@	c #E4E5E4",
"e@	c #E6E5E6",
"f@	c #E2E2E1",
"g@	c #A6A7A7",
"h@	c #030303",
"i@	c #A4A4A4",
"j@	c #E4E4E3",
"k@	c #CACBCB",
"l@	c #5F5E5E",
"m@	c #0C0C0C",
"n@	c #D9D9DA",
"o@	c #E6E7E7",
"p@	c #070707",
"q@	c #E0E0DF",
"r@	c #F4F4F4",
"s@	c #F6F6F5",
"t@	c #BABBBB",
"u@	c #3B3B3A",
"v@	c #404040",
"w@	c #D5D6D5",
"x@	c #EBEBEB",
"y@	c #484848",
"z@	c #343434",
"A@	c #585758",
"B@	c #747474",
"C@	c #626362",
"D@	c #383838",
"E@	c #0B0B0B",
"                                                                ",
"                      . + @ # $ % & * =                         ",
"                  + - ; > , ' ) ! ~ { ] ^ / (                   ",
"              _ : < [ } | | 1 2 3 4 5 6 7 8 9 0                 ",
"            a & b : c ) d e f g h i j k l m n o p q             ",
"          r s t u v w x y $ 8 z A B C D E F G ^ H C I           ",
"        J K ~ L M N O P Q R S s T U V W X Y Z s `  ...h         ",
"      +.l 7 ..@.#.$.%.4 J &.*.s o B ..=.-.;.>.,.'.).!.X         ",
"      ~ ~.S {.].^./.r ) ^ K (.s ! _.:.].M <.q [.}.!.|.1.[.      ",
"    2.G 3.4.5.$.6.$.b + 7.A s s 8.!.o = 0 9.0.a.b.].c.d.;.e.    ",
"    f.! H g.` @ h.7.R r i.j.k.s l.2 z m.n.o.p.q.;.r.s.].t.u.    ",
"  ~ v.w.C x.P 4 y.z.A.B.C.D.E.F.G.H.G B I.J.d F -.K.).L.M.N.    ",
"  O.P._.Q.R.S.J T.U.V.~ 5 : W._.X.G.% Y.Z.`.K.:.C W X '. +q .+  ",
"  m.++@+#+$+%+&+*+Q r T =+J -+;+).w.W  .>+k.W ,+..R.:.X '+)+!+  ",
"  n.y C ~+{+]+S ^+/+(+= o ~ i._+;.k.d :+].<+_.G.[+}+|+!.!.1+2+  ",
"  +.3+Y.4+H z 5+s 6+{+7+8+..T 9+'.0+a.a+l.! ! o b+A c+H d+7+e+  ",
"  T % r.i f+g+h+f+i+c+w.j+k+-.& l+R.Y m+~.{+$ s n+5+T 0 o I.o+  ",
"  C [.p+N _.G.q+r+..s+k.'+1.s 7.r ~ t+u+&+v+^ 7 K ~ H 8.w+K.x+  ",
"  k.y+z+i 2 Y.s+A+B+).q.q C+R D+E+G.).+ -+. F+&.R G+{+H+I+J+K+  ",
"  L+r.M+N+O+P+X Q+ .'.q I.[.v+R+| S+T+U+: b -+J +.*+u+4.R.V+W+  ",
"    k+X+Y+Z+F `+ @.@q X+Q++@P @ d+@@#@> $@D+%@4 -+*+&@% B [.    ",
"    :.*@1+=@-@X+'+ +;@1+>@4.& D+I.G.: $@,@'@7.: + )@H ! l+!@    ",
"    ;.F K.~@{@]@ +^@/@K.r.5 4 7.@.R (@_@^.; :@E+d+R 7+= K.      ",
"      <@k.!.[@x.z+}@|@k.1@x.2@3@q.{ j.i.4@} ; #@r l {+5@6@      ",
"        7@8@T 9@N.k+0@a@W Y.B o S ) P 1 < - D+b@o B ^ 1@        ",
"        9.c@R G.c+k.M !._.0 = {+^+&.a C.d@-+e@f@^+g@1.h@        ",
"          Y >@a.7+$ 8 y C i@W.H m ~ 7 *+b $.j@k@>@l@m@          ",
"            x W.5+~.S 2.n@+.&.s ~ : } '@#@i.4 o@ +p@            ",
"                ].~.u+R { q@P G+_.i.; c r@s@t@u@                ",
"                  v@=@A +.u w@! +@$@| x@Y.y@                    ",
"                        z@A@B@2+g C@D@E@                        ",
"                                                                "};
