<?xml version="1.0" encoding="UTF-8"?>
<svg width="24px" height="24px" viewBox="0 0 24 24" version="1.1" xmlns="http://www.w3.org/2000/svg" xmlns:xlink="http://www.w3.org/1999/xlink">
    <!-- Generator: Sketch 54.1 (76490) - https://sketchapp.com -->
    <title>Material/Icons black/content copy</title>
    <desc>Created with Sketch.</desc>
    <g id="Material/Icons-black/content-copy" stroke="none" stroke-width="1" fill="none" fill-rule="evenodd">
        <path d="M16,1.0001 L4,1.0001 C2.895,1.0001 2,1.8951 2,3.0001 L2,17.0001 L4,17.0001 L4,3.0001 L16,3.0001 L16,1.0001 L16,1.0001 Z M19,5.0001 L8,5.0001 C6.895,5.0001 6,5.8961 6,7.0001 L6,21.0001 C6,22.1041 6.895,23.0001 8,23.0001 L19,23.0001 C20.104,23.0001 21,22.1041 21,21.0001 L21,7.0001 C21,5.8961 20.104,5.0001 19,5.0001 L19,5.0001 Z M8,7.0001 L19,7.0001 L19,21.0001 L8,21.0001 L8,7.0001 Z" id="Shape" fill="#000000"></path>
    </g>
</svg>