<svg width="1184px" height="628px" viewBox="0 0 1184 628" version="1.1" xmlns="http://www.w3.org/2000/svg" xmlns:xlink="http://www.w3.org/1999/xlink">
    <defs>
        <polygon id="path-1" points="0.0950052537 0.311309992 137.129126 0.311309992 137.129126 110.699997 0.0950052537 110.699997"></polygon>
        <polygon id="path-3" points="0 627.299983 1183.82757 627.299983 1183.82757 0 0 0"></polygon>
        <polygon id="path-5" points="0 0 194 0 194 615 0 615"></polygon>
    </defs>
    <g id="ykfamily" stroke="none" stroke-width="1" fill="none" fill-rule="evenodd">
        <g id="Group-3" transform="translate(1016.099973, 516.599986)">
            <mask id="mask-2" fill="white">
                <use xlink:href="#path-1"></use>
            </mask>
            <g id="Clip-2"></g>
            <path d="M137.129126,0.311309992 L136.673726,100.016907 C136.646726,105.944307 131.947827,110.727807 126.177927,110.700028 L10.4919297,110.141907 C4.72292987,110.114907 0.0672299982,105.286407 0.0950052537,99.3581074 L0.546929986,0.311309992 L137.129126,0.311309992 Z" id="Fill-1" fill="#000000" mask="url(#mask-2)"></path>
        </g>
        <mask id="mask-4" fill="white">
            <use xlink:href="#path-3"></use>
        </mask>
        <g id="Clip-5"></g>
        <path d="M1053.85047,491.120087 L1111.33797,491.120087 L1111.33797,482.641187 L1053.85047,482.641187 L1053.85047,491.120087 Z M1161.65247,457.015488 L1004.17137,456.299754 C991.866574,456.245088 981.845074,465.849888 981.787474,477.756887 L981.643474,507.499187 L991.070074,507.541487 L1183.68717,507.541487 L1183.82782,478.673987 C1183.88517,466.767888 1173.95727,457.071288 1161.65247,457.015488 L1161.65247,457.015488 Z" id="Fill-4" fill="#000000" mask="url(#mask-4)"></path>
        <path d="M136.787666,329.20946 C174.501265,329.269671 205.122865,298.746172 205.183256,261.033473 C205.244365,223.320774 174.719965,192.698275 137.007266,192.637886 C99.2945674,192.577675 68.6720682,223.101174 68.611679,260.813873 C68.5514682,298.526572 99.0749674,329.149071 136.787666,329.20946 L136.787666,329.20946 Z M137.255666,38.6137408 C120.759567,38.587679 107.365767,51.9382786 107.338729,68.4343782 C107.312667,84.9295778 120.663267,98.3233774 137.159366,98.3504183 C153.654566,98.3773774 167.049266,85.0258777 167.075406,68.5297782 C167.102366,52.0345786 153.750866,38.640779 137.255666,38.6137408 L137.255666,38.6137408 Z M0.722069981,14.4388796 C0.735569981,6.48467983 7.25336981,-0.0124199997 15.2075696,0.000161704248 L253.217963,0.38267999 C261.173063,0.39527999 267.670163,6.91397982 267.657581,14.8681796 L266.934863,463.943868 C266.922263,471.898067 260.403563,478.396067 252.449363,478.382567 L223.457664,478.335767 L223.240764,612.860564 C223.228164,620.848064 216.742764,627.312763 208.755264,627.300182 L57.6542685,627.056263 C49.6667687,627.044563 43.2020689,620.559164 43.2146689,612.571664 L43.4315688,478.046867 L14.4389696,478.000067 C6.48476983,477.987467 -0.0123299997,471.468768 0.000251704245,463.514568 L0.722069981,14.4388796 Z" id="Fill-6" fill="#000000" mask="url(#mask-4)"></path>
        <polygon id="Fill-7" fill="#000000" mask="url(#mask-4)" points="135.323816 266.558303 144.972716 240.735504 159.298916 240.712104 135.457016 296.007202 120.345117 296.032402 127.242717 280.706303 110.487417 240.791304 125.113317 240.767004"></polygon>
        <path d="M142.061576,223.661514 C142.053476,225.064614 140.725076,225.839514 139.601876,225.259914 C138.465176,224.673114 137.370776,224.031414 136.049576,223.828914 C133.967876,223.509414 131.990577,223.714614 130.141977,224.710014 C129.813477,224.887314 129.496677,225.084414 129.160977,225.249114 C128.332077,225.657714 127.399677,225.422814 126.911877,224.695614 C126.449277,224.007114 126.608577,223.078314 127.329477,222.594114 C129.841377,220.908414 132.652976,220.260414 135.722876,220.551114 C137.756876,220.744614 139.591976,221.430414 141.273176,222.502314 C141.795176,222.836214 142.046276,223.287114 142.061576,223.661514" id="Fill-8" fill="#000000" mask="url(#mask-4)"></path>
        <path d="M135.188906,209.003119 C139.130906,209.041824 143.382506,210.254124 147.106706,212.628324 C147.907706,213.139524 148.046306,213.917124 147.472106,214.515624 C146.887106,215.124924 145.842206,215.240124 145.040306,214.722624 C142.694906,213.210624 140.049806,212.215224 137.065406,211.852524 C132.362906,211.280124 128.072607,212.105424 124.251207,214.384224 C124.048707,214.503924 123.850707,214.629024 123.646407,214.746924 C122.838207,215.211324 121.837407,215.117724 121.254207,214.525524 C120.677307,213.939624 120.777207,213.096324 121.607907,212.644524 C122.999307,211.889424 124.391607,211.108224 125.894607,210.514224 C128.538807,209.469324 131.389107,209.001324 135.188906,209.003119" id="Fill-9" fill="#315F74" mask="url(#mask-4)"></path>
        <path d="M146.154146,215.209074 C145.741946,215.209074 145.321646,215.093874 144.954446,214.856274 C142.563146,213.315474 139.902746,212.356974 137.046146,212.009574 C132.360746,211.439874 128.082147,212.284074 124.331847,214.519674 C124.254447,214.566474 124.177947,214.613274 124.101447,214.660074 C123.979047,214.734774 123.853047,214.812174 123.725247,214.885074 C122.859447,215.382774 121.772247,215.278374 121.141347,214.636674 C120.825447,214.317174 120.685047,213.922974 120.743547,213.528774 C120.805647,213.111174 121.085547,212.747574 121.532847,212.505474 L121.902747,212.302974 C123.159147,211.618974 124.457847,210.911574 125.836647,210.366174 C128.499747,209.314074 131.379747,208.844274 135.172346,208.844274 L135.188546,208.844274 L135.190346,208.844274 C139.301546,208.884774 143.563946,210.181674 147.191846,212.494674 C147.646346,212.784474 147.923546,213.172374 147.973046,213.587274 C148.017146,213.957174 147.883946,214.316274 147.586046,214.625874 C147.217046,215.010174 146.693246,215.209074 146.154146,215.209074" id="Fill-10" fill="#000000" mask="url(#mask-4)"></path>
        <path d="M134.979746,215.177482 C137.931746,215.205384 141.115046,216.071184 143.904146,217.766784 C144.504446,218.132184 144.607946,218.687484 144.177746,219.114984 C143.739446,219.549684 142.957346,219.632484 142.357046,219.263484 C140.600246,218.182584 138.619346,217.471584 136.385546,217.212384 C132.862946,216.803784 129.650847,217.393284 126.788847,219.021384 C126.637647,219.106884 126.489147,219.195984 126.336147,219.280584 C125.731347,219.611784 124.981647,219.545184 124.545147,219.122184 C124.113147,218.703684 124.187847,218.101584 124.809747,217.778484 C125.851947,217.238484 126.895047,216.680484 128.020047,216.256584 C129.999147,215.510484 132.134846,215.176584 134.979746,215.177482" id="Fill-11" fill="#315F74" mask="url(#mask-4)"></path>
        <path d="M143.187836,219.948204 C142.819736,219.948204 142.445336,219.850104 142.119536,219.649404 C140.369936,218.573904 138.423236,217.905204 136.332536,217.663104 C132.894536,217.264404 129.758937,217.853904 127.013037,219.415404 C126.956337,219.447804 126.899637,219.480204 126.842937,219.513504 C126.749337,219.568404 126.653037,219.624204 126.554937,219.678204 C125.769237,220.108404 124.812537,220.013904 124.229337,219.447804 C123.918837,219.147204 123.773937,218.753004 123.830637,218.366904 C123.890937,217.953804 124.164537,217.601904 124.601037,217.376004 L124.878237,217.232004 C125.826837,216.738804 126.808737,216.228504 127.859937,215.832504 C129.893037,215.065704 132.086337,214.723704 134.967236,214.723704 L134.979836,214.723704 L134.984336,214.723704 C138.120836,214.753404 141.372536,215.696604 144.140036,217.379604 C144.572936,217.642404 144.837536,218.011404 144.886136,218.416404 C144.929336,218.782704 144.790736,219.144504 144.497336,219.437004 C144.158036,219.774504 143.678336,219.948204 143.187836,219.948204" id="Fill-12" fill="#000000" mask="url(#mask-4)"></path>
        <path d="M663.561432,263.995913 C663.561432,242.359014 646.021333,224.819814 624.385333,224.819814 C602.749334,224.819814 585.208334,242.359014 585.208334,263.995913 C585.208334,285.632812 602.749334,303.172012 624.385333,303.172012 C646.021333,303.172012 663.561432,285.632812 663.561432,263.995913 M559.220835,620.475104 L559.220835,518.475406 L535.459936,518.475406 C531.690736,518.475406 528.635236,515.420806 528.635236,511.650706 L528.635236,373.95791 C525.597736,373.26671 523.326136,370.56221 523.326136,367.31501 L523.326136,319.541212 C523.326136,316.294912 525.597736,313.589512 528.635236,312.898312 L528.635236,265.008413 L528.714436,265.008413 C528.710836,264.670013 528.689236,264.335213 528.689236,263.995913 C528.689236,211.144314 571.533735,168.299816 624.385333,168.299816 C677.236032,168.299816 720.081431,211.144314 720.081431,263.995913 C720.081431,264.335213 720.058931,264.670013 720.055331,265.008413 L720.134531,265.008413 L720.134531,312.716512 L720.620531,312.716512 C724.389731,312.716512 727.445231,315.772012 727.445231,319.541212 L727.445231,367.31501 C727.445231,371.08511 724.389731,374.13971 720.620531,374.13971 L720.134531,374.13971 L720.134531,511.650706 C720.134531,515.420806 717.079931,518.475406 713.309831,518.475406 L687.827232,518.475406 L687.827232,620.475104 C687.827232,624.244303 684.770832,627.299803 681.002532,627.299803 L566.045535,627.299803 C562.276335,627.299803 559.220835,624.244303 559.220835,620.475104" id="Fill-13" fill="#000000" mask="url(#mask-4)"></path>
        <path d="M894.652176,612.593084 L939.808775,612.593084 L939.808775,491.036387 L894.652176,491.036387 L894.652176,612.593084 Z M858.242677,598.535084 L886.031077,598.535084 L886.031077,491.036387 L858.242677,491.036387 L858.242677,598.535084 Z M820.404878,598.535084 L848.193278,598.535084 L848.193278,491.036387 L820.404878,491.036387 L820.404878,598.535084 Z M765.69658,612.593084 L810.852279,612.593084 L810.852279,491.036387 L765.69658,491.036387 L765.69658,612.593084 Z M838.942178,417.933889 L838.943978,417.725089 L865.140277,417.944689 L865.139377,418.065289 C869.833777,418.103989 873.607477,421.953289 873.568186,426.662089 C873.529177,431.370889 869.692477,435.156288 864.998077,435.116688 L864.997177,435.237288 L838.799978,435.018588 L838.800878,434.808888 C834.527678,434.328288 831.211178,430.715689 831.246888,426.307489 C831.284078,421.899289 834.661778,418.343389 838.942178,417.933889 L838.942178,417.933889 Z M952.243175,439.737288 L934.551875,439.589688 C906.525876,412.218889 877.084177,411.365689 851.637577,411.300243 C828.227678,411.242389 786.045579,412.764289 767.98978,438.755388 L755.26918,438.755388 C755.02078,438.753588 754.81738,438.954288 754.81558,439.203588 L753.411825,607.051784 C753.32698,617.405384 761.62318,625.868083 771.94438,625.955383 L932.442275,627.299764 C942.764375,627.386383 951.200975,619.063184 951.287375,608.709584 L952.689587,440.193588 C952.689587,439.943388 952.491575,439.739988 952.243175,439.737288 L952.243175,439.737288 Z" id="Fill-14" fill="#000000" mask="url(#mask-4)"></path>
        <polygon id="Fill-15" fill="#000000" mask="url(#mask-4)" points="764.43118 614.824184 941.188475 614.824184 941.188475 489.305687 764.43118 489.305687"></polygon>
        <g id="Group-3" mask="url(#mask-4)">
            <g transform="translate(297.000000, 13.000000)">
                <mask id="mask-6" fill="white">
                    <use xlink:href="#path-5"></use>
                </mask>
                <g id="Clip-2" stroke="none" fill="none"></g>
                <path d="M7.37107061,279.794065 L7.37107061,278.758513 C7.40828439,279.203484 7.42008388,279.538116 7.37107061,279.794065 L7.37107061,279.794065 Z M126.390815,252.324351 C126.432467,268.431029 113.39403,281.43286 97.1915148,281.441005 C80.9399859,281.450948 67.9659923,268.563073 67.9514561,252.3958 C67.9360397,236.232144 80.9027721,223.278247 97.1225332,223.251982 C113.311434,223.226695 126.348963,236.17607 126.390815,252.324351 L126.390815,252.324351 Z M186.628929,280.45519 C186.591716,280.443433 186.558132,280.431675 186.520011,280.419918 C186.551779,279.943293 186.590808,279.472998 186.628929,279.004513 L186.628929,280.45519 Z M193.989088,329.063732 C193.990904,328.945254 193.99999,328.831298 193.99999,328.711011 C193.988181,327.588635 193.986366,326.465355 193.976381,325.34298 C193.944613,313.381223 193.878355,301.418562 193.793035,289.456805 C193.79122,288.979276 193.789405,288.501746 193.787589,288.025121 C193.787589,287.982613 193.783051,287.942819 193.783051,287.900312 C193.778513,287.319679 193.77579,286.740855 193.771252,286.160223 C193.744022,282.473838 191.701803,279.94691 188.151971,278.907741 C188.04033,278.874277 187.929596,278.836292 187.817047,278.805542 C187.320561,278.671689 186.951146,278.569491 186.672497,278.461865 C186.746924,277.544791 186.813183,276.636762 186.819537,275.73054 C186.863104,269.015279 186.857658,262.300018 186.870365,255.585662 C186.915748,231.98231 186.97293,208.378055 187.00379,184.773799 C187.037373,159.547932 187.055526,134.320256 187.041004,109.093485 C187.041004,108.15561 186.840413,107.196028 186.579916,106.273528 C186.097045,101.213341 181.790231,97.2194565 176.590286,97.2194565 L148.118116,97.2194565 C148.08544,96.8052357 148.05821,96.4498017 148.05458,96.1006985 C147.96926,89.1837535 147.86125,82.2668085 147.819498,75.3489591 C147.704226,56.2902795 147.608014,37.2325042 147.530864,18.1738246 C147.529049,17.7071478 147.513619,17.246802 147.485481,16.7909782 L147.485481,16.2899338 C147.485481,7.55873782 140.316837,0.416594168 131.556169,0.416594168 L101.813284,0.416594168 C88.8011694,0.271888206 75.7890545,0.127182244 62.7769395,0.000275325765 C61.6587108,-0.0111928328 60.5223291,0.337910301 59.4186229,0.615564866 C57.2620392,1.16002105 55.4630707,2.24531577 54.0435012,3.88139755 C50.3720444,6.79541387 48.0012545,11.2767766 48.0012545,16.2899338 L48.0012545,86.3710314 C47.9522412,89.2181212 47.8351539,92.0661154 47.7117131,94.9113964 C47.6391009,96.5809414 47.3304988,96.8486475 45.5950661,96.8857284 C41.2519459,96.9779784 36.9061028,97.1552432 32.5629827,97.2194565 L27.2577503,97.2194565 C26.9064885,97.2131256 26.5552268,97.2203609 26.203965,97.2113168 C26.0414951,97.2076991 25.8835635,97.2194565 25.7229089,97.2194565 L17.409714,97.2194565 C11.8884601,97.2194565 7.37107061,101.719812 7.37107061,107.221352 L7.37107061,130.884394 C7.37107061,131.41438 7.4255298,131.933512 7.50631093,132.442697 C7.46365123,152.618325 7.41826858,172.79305 7.38831602,192.968679 C7.34747163,220.777547 7.32750326,248.586415 7.29845836,276.396188 C7.29845836,277.005762 7.27032112,277.620762 7.32387265,278.226718 C7.33204153,278.310829 7.33748745,278.377755 7.34474867,278.456439 C7.06428386,278.566777 6.68942313,278.668976 6.18295269,278.805542 C6.07040371,278.836292 5.95967003,278.874277 5.84802869,278.907741 C2.29728972,279.94691 0.255070225,282.473838 0.228748284,286.160223 C0.116199299,301.460165 0.0190804158,316.759203 9.83491793e-06,332.059145 C-0.00633387131,336.895942 3.05699538,339.881407 6.78018844,342.375776 C6.95808845,342.495158 7.13054254,342.680563 7.26850581,342.878629 C7.28938183,393.179326 7.3093502,443.479118 7.33294918,493.779815 C7.33385684,495.061368 7.2204002,496.348346 7.37107061,497.620854 L7.37107061,501.419386 C7.37107061,506.920021 11.8884601,511.421281 17.409714,511.421281 L35.5382696,511.421281 C35.531916,513.173128 35.5246548,514.822776 35.5482538,516.467901 C35.6126972,520.867867 35.7733518,525.266928 35.77789,529.66599 C35.7824283,533.529639 35.5872829,537.393288 35.5500691,541.257842 C35.4484119,551.766208 35.377615,562.273669 35.3068181,572.782035 C35.2550818,580.511143 35.7624599,601.337044 35.7624599,604.9972 C35.7624599,609.964233 38.8203432,615 47.9277346,615 L151.55449,615 C157.075744,615 161.593134,610.49874 161.593134,604.9972 L161.593134,511.421281 L176.590286,511.421281 C182.041651,511.421281 186.505489,507.032168 186.618038,501.625592 C186.698819,501.225842 186.756908,500.820665 186.761447,500.404635 C186.903041,489.079585 186.835874,477.75363 186.854935,466.426771 C186.895779,442.619927 186.954777,418.813083 186.985637,395.006239 C187.008328,377.522141 186.999252,360.038947 187.012867,342.554849 C187.081848,342.491541 187.149015,342.422805 187.218904,342.375776 C190.943005,339.881407 194.006334,336.895942 193.99999,332.059145 C193.99999,331.060674 193.990904,330.062203 193.989088,329.063732 L193.989088,329.063732 Z" id="Fill-1" stroke="none" fill="#000000" fill-rule="evenodd" mask="url(#mask-6)"></path>
            </g>
        </g>
    </g>
</svg>