<?xml version="1.0" encoding="UTF-8"?>
<svg width="25px" height="60px" viewBox="0 0 25 60" version="1.1" xmlns="http://www.w3.org/2000/svg" xmlns:xlink="http://www.w3.org/1999/xlink">
    <g id="yubico" stroke="none" stroke-width="1" fill="none" fill-rule="evenodd">
        <g id="Verify-Expanded" transform="translate(-237.000000, -798.000000)" fill="#000000" fill-rule="nonzero">
            <path d="M260.235294,816 C262.444433,816 264.235294,817.790861 264.235294,820 L264.235497,820.238685 C264.274358,820.236435 264.313516,820.235294 264.352941,820.235294 L277.764706,820.235294 C278.869275,820.235294 279.764706,821.130725 279.764706,822.235294 L279.764706,833.764706 C279.764706,834.869275 278.869275,835.764706 277.764706,835.764706 L264.352941,835.764706 L264.235,835.76 L264.235294,836 C264.235294,838.209139 262.444433,840 260.235294,840 L224,840 C221.790861,840 220,838.209139 220,836 L220,820 C220,817.790861 221.790861,816 224,816 L260.235294,816 Z M245.176471,821.647059 C241.667838,821.647059 238.823529,824.491367 238.823529,828 C238.823529,831.508633 241.667838,834.352941 245.176471,834.352941 C248.685103,834.352941 251.529412,831.508633 251.529412,828 C251.529412,824.491367 248.685103,821.647059 245.176471,821.647059 Z M278.352941,831.058824 L267.529412,831.058824 L267.529412,833.411765 L278.352941,833.411765 L278.352941,831.058824 Z M226.823529,824.941176 C225.134188,824.941176 223.764706,826.310658 223.764706,828 C223.764706,829.689342 225.134188,831.058824 226.823529,831.058824 C228.512871,831.058824 229.882353,829.689342 229.882353,828 C229.882353,826.310658 228.512871,824.941176 226.823529,824.941176 Z M276.941176,828.235294 L267.529412,828.235294 L267.529412,830.588235 L276.941176,830.588235 L276.941176,828.235294 Z M243.058824,825.882353 L247.644072,827.746324 L247.644072,828.911305 L246.389476,828.379596 L243.058824,829.684972 L243.058824,828.555836 L245.227482,827.752298 L243.058824,826.987592 L243.058824,825.882353 Z M276.941176,825.411765 L267.529412,825.411765 L267.529412,827.764706 L276.941176,827.764706 L276.941176,825.411765 Z M278.352941,822.588235 L267.529412,822.588235 L267.529412,824.941176 L278.352941,824.941176 L278.352941,822.588235 Z" id="yubikey" transform="translate(249.882353, 828.000000) rotate(90.000000) translate(-249.882353, -828.000000) "></path>
        </g>
    </g>
</svg>
