<svg xmlns="http://www.w3.org/2000/svg" viewBox="0 0 24 24" width="24" height="24" fill="#000000" style="opacity:1;"><path  d="M11 18Zm-8 2v-2.8q0-.85.438-1.563T4.6 14.55q1.55-.775 3.15-1.163T11 13q.5 0 1 .038t1 .112q-.05.525.025 1.05t.25 1.025q-.575-.125-1.137-.175T11 15q-1.4 0-2.775.338T5.5 16.35q-.225.125-.363.35T5 17.2v.8h10.5v2H3Zm16 3l-1.5-1.5v-4.65q-1.1-.325-1.8-1.238T15 13.5q0-1.45 1.025-2.475T18.5 10q1.45 0 2.475 1.025T22 13.5q0 1.125-.638 2t-1.612 1.25L21 18l-1.5 1.5L21 21l-2 2Zm-.5-9q.425 0 .713-.288T19.5 13q0-.425-.288-.713T18.5 12q-.425 0-.713.288T17.5 13q0 .425.288.713T18.5 14ZM11 12q-1.65 0-2.825-1.175T7 8q0-1.65 1.175-2.825T11 4q1.65 0 2.825 1.175T15 8q0 1.65-1.175 2.825T11 12Zm0-2q.825 0 1.413-.588T13 8q0-.825-.588-1.413T11 6q-.825 0-1.413.588T9 8q0 .825.588 1.413T11 10Zm0-2Z"/></svg>